<svg id="Layer_1" xmlns="http://www.w3.org/2000/svg" viewBox="0 0 432 235"><path fill="#000" class="st0" d="M168.543 64.111v72.925h-13.457v-9.372c-1.927 3.994-3.852 6.741-5.778 8.245-1.927 1.503-4.463 2.255-7.609 2.255-6.059 0-10.498-3.1-13.316-9.3-2.818-6.201-4.227-15.924-4.227-29.17 0-12.635 1.409-21.923 4.227-27.866 2.818-5.942 7.257-8.913 13.316-8.913 5.542 0 10.005 3.147 13.387 9.441v-8.244h13.457zm-30.438 36.145c0 9.582.634 16.276 1.902 20.08 1.314 3.805 3.617 5.707 6.905 5.707 3.005 0 5.189-1.973 6.553-5.918 1.362-4.227 2.043-10.733 2.043-19.517 0-8.831-.681-15.36-2.043-19.587-1.363-3.946-3.547-5.918-6.553-5.918-3.195 0-5.472 1.879-6.834 5.637-1.315 3.476-1.973 9.981-1.973 19.516zM187.439 64.111h13.457V73.2c2.301-3.851 4.58-6.553 6.834-8.103s5.237-2.442 8.948-2.677v14.092c-.94-.141-1.738-.211-2.396-.211-4.838 0-8.29 1.245-10.357 3.734-2.02 2.443-3.03 6.718-3.03 12.823v44.178h-13.457V64.111zM228.178 64.111h42.344l-24.378 60.734h23.11v12.19h-43.049l25.223-61.017h-23.25V64.111zM326.972 101.172c0 24.66-7.633 36.991-22.899 36.991-15.266 0-22.899-12.518-22.899-37.555 0-25.129 7.609-37.695 22.828-37.695 3.946 0 7.363.752 10.252 2.255 2.889 1.504 5.273 3.829 7.151 6.975 1.879 3.147 3.276 7.116 4.192 11.907.917 4.792 1.375 10.499 1.375 17.122zm-13.95-.353c0-9.582-.634-16.251-1.902-20.01-1.268-3.805-3.523-5.707-6.764-5.707-3.194 0-5.472 1.879-6.834 5.637-1.268 3.759-1.902 10.311-1.902 19.658 0 9.347.634 15.877 1.902 19.587 1.362 3.759 3.64 5.637 6.834 5.637 3.194 0 5.425-1.855 6.693-5.566 1.315-3.477 1.973-9.888 1.973-19.236zM343.123 17.327h13.457v119.708h-13.457V17.327zM370.333 64.111h6.764V38.676c0-8.314 1.221-14.185 3.664-17.614 2.441-3.428 6.693-5.143 12.753-5.143 2.63 0 5.682.634 9.159 1.902v14.232c-2.161-1.173-4.063-1.761-5.707-1.761-2.302 0-3.936.681-4.897 2.043-.963 1.363-1.444 3.664-1.444 6.905l-.07 5.496v19.376h11.414v10.71h-11.414v62.215h-13.457V74.821h-6.764v-10.71zM.303.473v164.338h112.231V.473H.303zm79.085 136.562l-2.466-36.92c-.096-1.878-.176-3.498-.247-4.862a68.304 68.304 0 0 1-.106-3.382l-.634-14.585-.352-13.387c0-.094-.012-.293-.035-.599-.025-.305-.061-.715-.106-1.233l-.352 2.184a575.501 575.501 0 0 1-1.022 6.764 271.652 271.652 0 0 1-.81 4.862l-1.832 9.935-.705 3.734-9.159 47.488h-9.864l-8.596-41.006a328.89 328.89 0 0 1-3.135-16.452 431.04 431.04 0 0 1-2.501-17.509l-4.227 74.967h-13.81l8.948-108.786h12.541L50.5 72.637A457.99 457.99 0 0 1 53.706 89.3a435.742 435.742 0 0 1 2.642 17.509c.094-.799.164-1.42.211-1.867a7.44 7.44 0 0 1 .141-.951l2.043-12.471 1.832-11.837 1.621-7.821 8.525-43.613h12.682l10.005 108.786h-14.02z"/><g><path fill="#000" class="st0" d="M2.026 186.325H8.54v48.35H2.026v-48.35zM15.37 186.325h6.075l6.482 19.29c1.879 5.449 3.539 11.263 4.979 17.442-.523-3.736-.908-7.118-1.159-10.146a103.679 103.679 0 0 1-.376-8.549v-18.037h6.545v48.35H31.81l-7.296-21.764c-.669-2.024-1.3-4.102-1.895-6.232s-1.143-4.363-1.644-6.701c-.043-.292-.11-.646-.204-1.065-.094-.417-.204-.896-.329-1.44.063.544.114 1.008.157 1.393.041.388.072.716.094.986l.344 4.916.344 5.981c.02.335.035.742.047 1.221.01.481.016 1.024.016 1.628l.344 21.075H15.37v-48.348zM42.038 186.325h6.419l2.912 17.849.501 3.225 1.033 7.014.454 3.257c.135.982.254 1.869.36 2.662l.313 2.38c.063-.48.114-.908.157-1.284.041-.376.082-.689.125-.939l.845-5.605 1.096-7.359c.104-.667.204-1.284.297-1.848.094-.564.182-1.065.266-1.503l3.131-17.849h6.075l-9.488 48.35H51.37l-9.332-48.35zM70.153 186.325H87.47v5.511H76.666v15.313h9.582v5.511h-9.582v16.503H87.47v5.511H70.153v-48.349zM109.288 187.327v6.357c-1.985-1.419-3.769-2.129-5.355-2.129-1.713 0-3.112.607-4.196 1.816-1.086 1.149-1.628 2.683-1.628 4.603 0 1.691.386 3.143 1.159 4.353.395.648 1.049 1.484 1.957 2.505.908 1.024 2.082 2.255 3.523 3.695 2.65 2.693 4.456 5.022 5.417 6.983.959 1.9 1.44 4.227 1.44 6.983 0 3.738-1.055 6.817-3.163 9.238-2.11 2.36-4.813 3.539-8.11 3.539-2.777 0-5.147-.761-7.108-2.286v-6.451c2.317 1.691 4.425 2.536 6.326 2.536 1.773 0 3.163-.589 4.165-1.769 1.002-1.178 1.503-2.781 1.503-4.807 0-1.754-.388-3.329-1.159-4.728-.397-.667-.951-1.435-1.66-2.302-.71-.865-1.597-1.832-2.662-2.897-1.65-1.628-3.018-3.069-4.102-4.321-1.086-1.253-1.891-2.349-2.411-3.288-1.002-1.836-1.503-4.153-1.503-6.952 0-3.777.981-6.774 2.944-8.987 1.983-2.233 4.644-3.351 7.985-3.351 2.317 0 4.528.554 6.638 1.66zM113.58 186.325h21.2v5.699h-7.296v42.65h-6.388v-42.65h-7.515v-5.699zM140.295 186.325h5.574l4.259 19.728c.521 2.464.996 4.932 1.425 7.406.427 2.474.818 5.069 1.174 7.782l.094-.83c.02-.198.041-.339.063-.423l.908-5.543.814-5.261.72-3.476 3.789-19.384h5.637l4.447 48.35h-6.232l-1.096-16.409c-.043-.834-.078-1.554-.11-2.161a30.456 30.456 0 0 1-.047-1.503l-.282-6.482-.157-5.95a5.2 5.2 0 0 0-.016-.266l-.047-.548-.157.971a271.775 271.775 0 0 1-.454 3.006c-.137.857-.256 1.577-.36 2.161l-.814 4.415-.313 1.66-4.071 21.106h-4.384l-3.82-18.225a144.321 144.321 0 0 1-1.393-7.312 191.818 191.818 0 0 1-1.112-7.782l-1.879 33.319h-6.138l3.978-48.349zM174.193 186.325h17.317v5.511h-10.803v15.313h9.582v5.511h-9.582v16.503h10.803v5.511h-17.317v-48.349zM196.806 186.325h6.075l6.482 19.29c1.879 5.449 3.539 11.263 4.979 17.442-.523-3.736-.908-7.118-1.159-10.146a103.679 103.679 0 0 1-.376-8.549v-18.037h6.545v48.35h-6.106l-7.296-21.764c-.669-2.024-1.3-4.102-1.895-6.232a112.454 112.454 0 0 1-1.644-6.701c-.043-.292-.11-.646-.204-1.065-.094-.417-.204-.896-.329-1.44.063.544.114 1.008.157 1.393.041.388.072.716.094.986l.344 4.916.344 5.981c.02.335.035.742.047 1.221.01.481.016 1.024.016 1.628l.344 21.075h-6.419v-48.348zM223.472 186.325h21.2v5.699h-7.296v42.65h-6.388v-42.65h-7.515v-5.699zM273.137 209.247h11.837v1.879c0 9.416-.826 15.773-2.474 19.07-1.628 3.382-4.678 5.073-9.144 5.073-4.615 0-7.903-1.879-9.864-5.637-1.941-3.758-2.912-10.072-2.912-18.945 0-10.146 1.065-16.898 3.194-20.26 2.004-3.151 5.083-4.728 9.238-4.728 3.173 0 5.646.763 7.422 2.286 1.795 1.546 3.194 4.083 4.196 7.609l-6.075 2.536c-.272-1.272-.575-2.343-.908-3.21-.335-.865-.701-1.538-1.096-2.02-.795-.981-1.985-1.472-3.57-1.472-2.172 0-3.654 1.337-4.447 4.008-.795 2.799-1.19 7.819-1.19 15.062 0 7.328.407 12.287 1.221 14.874.814 2.589 2.349 3.883 4.603 3.883 2.067 0 3.517-.918 4.353-2.756.855-1.961 1.284-5.114 1.284-9.457v-2.286h-5.668v-5.509zM290.699 186.325h8.58c3.548 0 6.189.845 7.923 2.536 2.192 2.192 3.288 5.543 3.288 10.052 0 3.466-.579 6.247-1.738 8.345s-2.814 3.398-4.963 3.899l8.893 23.517h-6.607L297.212 211v23.674h-6.513v-48.349zm6.513 21.419c2.525 0 4.31-.583 5.355-1.754 1.043-1.168 1.566-3.141 1.566-5.918 0-1.503-.11-2.787-.329-3.852s-.564-1.93-1.033-2.599a4.177 4.177 0 0 0-1.816-1.472c-.742-.313-1.624-.47-2.646-.47h-1.096v16.065zM340.943 211.689c0 8.539-.951 14.604-2.85 18.194-1.9 3.591-5.085 5.386-9.551 5.386-4.697 0-8.007-1.93-9.927-5.793-1.9-3.777-2.85-10.49-2.85-20.135 0-8.6.939-14.686 2.818-18.256 1.898-3.589 5.114-5.386 9.645-5.386 4.049 0 7.056 1.39 9.019 4.165 1.294 1.859 2.233 4.499 2.818 7.923.584 3.173.878 7.808.878 13.902zm-6.827.689c0-8.371-.376-13.923-1.127-16.659-.752-2.756-2.286-4.133-4.603-4.133s-3.863 1.264-4.635 3.789c-.752 2.548-1.127 7.662-1.127 15.344 0 7.077.395 11.984 1.19 14.718.814 2.589 2.337 3.883 4.572 3.883 2.192 0 3.695-1.21 4.509-3.632.814-2.401 1.221-6.838 1.221-13.31zM346.822 186.325h6.388v34.164c0 3.488.313 5.805.939 6.952.646 1.149 1.92 1.722 3.82 1.722 1.898 0 3.151-.501 3.758-1.503.626-1.022.939-3.1.939-6.232v-35.104h6.388v35.104c0 5.261-.804 8.821-2.411 10.678-1.922 2.11-4.854 3.163-8.799 3.163-4.343 0-7.402-1.356-9.175-4.071-1.233-1.857-1.848-5.427-1.848-10.71v-34.163zM375.86 186.325h8.58c4.134 0 7.14 1.045 9.019 3.131 1.879 2.11 2.818 5.449 2.818 10.021 0 6.431-1.891 10.584-5.668 12.463-1.9.857-4.646 1.284-8.236 1.284v21.45h-6.513v-48.349zm6.514 21.325c2.693 0 4.55-.542 5.574-1.628 1.043-1.106 1.566-3.069 1.566-5.887 0-2.881-.501-4.989-1.503-6.326-1.002-1.335-2.58-2.004-4.728-2.004h-.908v15.845z"/></g><g><path fill="#000" class="st0" d="M409.216 18.918v-2.117h9.381v2.117h-3.431v9.331h-2.517v-9.331h-3.433zM423.687 16.802l2.677 7.872h.031l2.533-7.872h3.544v11.447h-2.356v-8.112h-.033l-2.805 8.112h-1.941l-2.805-8.032h-.033v8.032h-2.356V16.802h3.544z"/></g></svg>